<svg xmlns="http://www.w3.org/2000/svg" width="65.842" height="98.416" viewBox="0 0 65.842 98.416">
  <g id="Group_192" data-name="Group 192" transform="translate(-2112.11 -1383.236)">
    <path id="Path_7464" data-name="Path 7464" d="M2136.806,1438.942c-2.614,1.557-4.856,2.823-7.019,4.211a3,3,0,0,1-2.665.379c-3.426-.918-6.869-1.779-10.33-2.553-1.2-.269-1.294-.727-.942-1.792,1.165-3.529,1.125-3.543,4.783-3.03a16.929,16.929,0,0,1,2.831.428,8.765,8.765,0,0,0,9.324-2.179,11.954,11.954,0,0,1,10.6-3.523c-3.58-2.39-4.723-4.67-3.989-7.332a5.772,5.772,0,0,1,5.386-4.276,5.7,5.7,0,0,1,5.537,3.772c1.039,2.8.069,5.024-3.767,7.943,5.732-1.278,9.076,2.356,12.811,4.989a5.03,5.03,0,0,0,4.321,1.032c2.46-.538,5.009-.658,7.49-1.121,1.235-.231,1.777-.033,2.18,1.255,1.085,3.468,1.16,3.445-2.335,4.3a12.443,12.443,0,0,0-1.982.5c-5.173,2.239-9.946,1.842-14.272-2-.354-.314-.8-.765-1.364-.643-1.719,14.419,2.62,28.14,4.6,42.3-2.415,0-4.8-.058-7.175.025-1.168.04-1.122-.778-1.257-1.452q-2.139-10.637-4.235-21.282a1.326,1.326,0,0,0-.57-.93q-1.134,5.628-2.267,11.257c-.722,3.613-1.452,7.225-2.131,10.847-.2,1.06-.5,1.681-1.807,1.572a38.938,38.938,0,0,0-5.324-.013c-1.271.07-1.387-.324-1.172-1.5,1.508-8.259,3.008-16.52,4.342-24.807C2137.26,1450.045,2136.525,1444.706,2136.806,1438.942Z" fill="#41486d"/>
    <path id="Path_7465" data-name="Path 7465" d="M2155.887,1383.236c1.409,4.219,2.732,8.16,4.035,12.109.121.369.29.893.128,1.15-.314.5-.855.173-1.3.026-3.944-1.315-7.888-2.634-11.874-3.966a3.961,3.961,0,0,1,1.666-2.014c1.533-1.291.763-1.668-.633-2.038a11.478,11.478,0,0,0-6.321,22.064,11.145,11.145,0,0,0,12.41-4.039c1.241-1.684,1.994-.529,2.933-.011,1.548.854.082,1.524-.293,2.021a14.758,14.758,0,0,1-25.1-15.206,14.529,14.529,0,0,1,18.223-7.6c2.217.86,3.471.527,4.746-1.183A12.536,12.536,0,0,1,2155.887,1383.236Z" fill="#fc9704"/>
    <path id="Path_7466" data-name="Path 7466" d="M2146.59,1398.859c1.122,4-2.836,5.484-4.99,7.95-.827.947-1.225-.589-1.818-.961-.445-.279-1.136-.726-.356-1.42a5.78,5.78,0,0,1,.434-.428,7.654,7.654,0,0,0,3.453-8.188c-.249-1.335.705-1.208,1.516-1.139.756.063,1.911-.483,1.774,1.108C2146.528,1396.658,2146.59,1397.547,2146.59,1398.859Z" fill="#fc9704"/>
    <path id="Path_7467" data-name="Path 7467" d="M2115.388,1407.8c1.705.137,2.409,1.291,1.834,2.93a18.237,18.237,0,0,0-.881,2.926c-.171,1.007-.574,1.112-1.516.975-1.641-.238-2.265-.825-1.513-2.49.5-1.109.812-2.3,1.2-3.463C2114.665,1408.227,2114.787,1407.762,2115.388,1407.8Z" fill="#7985e2" opacity="0.52"/>
    <path id="Path_7468" data-name="Path 7468" d="M2168.859,1403.409c-.313-.34-.583-.629-.849-.921-.824-.908-1.6-1.87-2.487-2.709-.654-.616-.795-.983-.151-1.786,1-1.247,1.781-1.721,2.9-.185.64.876,1.488,1.6,2.141,2.467.313.415,1.2.806.6,1.474A14.7,14.7,0,0,1,2168.859,1403.409Z" fill="#7985e2" opacity="0.52"/>
    <path id="Path_7469" data-name="Path 7469" d="M2176.877,1412.964c.1,1.4-.835,1.25-1.385,1.3-.6.058-1.45.9-1.851-.34-.481-1.482-.955-2.968-1.485-4.433-.4-1.116.583-1.081,1.095-1.277.579-.22,1.362-1.237,1.861-.143C2175.87,1409.733,2176.366,1411.511,2176.877,1412.964Z" fill="#7985e2" opacity="0.52"/>
    <path id="Path_7470" data-name="Path 7470" d="M2113.8,1420.99c1.4-.351,1.739.326,1.7,1.615a11.344,11.344,0,0,0,.345,3.022c.3,1.229-.152,1.6-1.32,1.878-1.442.342-1.965-.042-2-1.478a26.81,26.81,0,0,0-.361-3.434C2111.947,1421.244,2112.421,1420.672,2113.8,1420.99Z" fill="#7985e2" opacity="0.52"/>
    <path id="Path_7471" data-name="Path 7471" d="M2124.924,1398.775c.027.595-.4.779-.652,1.068a36.522,36.522,0,0,0-2.437,2.754c-.633.878-1.081.8-1.936.269-1.366-.852-1.574-1.614-.356-2.75.795-.742,1.441-1.642,2.227-2.4.386-.371.715-1.259,1.392-.8A11.088,11.088,0,0,1,2124.924,1398.775Z" fill="#7985e2" opacity="0.52"/>
    <path id="Path_7472" data-name="Path 7472" d="M2177.831,1422.3c-.2,1.537-.293,2.481-.447,3.416-.151.91.165,2.125-1.606,1.792-1.491-.281-2.08-.8-1.668-2.36a11.19,11.19,0,0,0,.314-3.022c-.017-.974.309-1.235,1.271-1.271C2177.218,1420.8,2178.331,1420.925,2177.831,1422.3Z" fill="#7985e2" opacity="0.52"/>
  </g>
</svg>
